<svg role="img" viewBox="0 0 24 24" xmlns="http://www.w3.org/2000/svg">
  <title>GitHub icon</title>
  <path fill="currentColor" d="M12 .296C5.373.296 0 5.67 0 12.295c0 5.289 3.438 9.772 8.205 11.387.6.111.82-.261.82-.577 0-.285-.011-1.04-.017-2.04-3.338.725-4.042-1.609-4.042-1.609-.546-1.388-1.334-1.757-1.334-1.757-1.089-.744.083-.729.083-.729 1.205.084 1.839 1.238 1.839 1.238 1.07 1.835 2.807 1.305 3.492.998.108-.775.42-1.305.763-1.604-2.665-.304-5.466-1.333-5.466-5.932 0-1.31.469-2.381 1.236-3.221-.124-.303-.535-1.523.117-3.176 0 0 1.008-.322 3.301 1.23.957-.266 1.983-.399 3.003-.404 1.02.005 2.047.138 3.006.404 2.289-1.552 3.295-1.23 3.295-1.23.653 1.653.242 2.873.118 3.176.77.84 1.235 1.911 1.235 3.221 0 4.609-2.807 5.625-5.479 5.921.431.371.816 1.102.816 2.222 0 1.604-.015 2.898-.015 3.293 0 .319.216.694.825.576C20.565 22.064 24 17.582 24 12.295 24 5.67 18.627.296 12 .296z"/>
</svg>
